<?xml version="1.0" encoding="UTF-8" standalone="no"?>
<!-- Created with Inkscape (http://www.inkscape.org/) -->

<svg
   version="1.1"
   id="svg2"
   width="700"
   height="800"
   viewBox="0 0 700 799.99999"
   xmlns="http://www.w3.org/2000/svg"
   xmlns:svg="http://www.w3.org/2000/svg">
  <defs
     id="defs6" />
  <g
     id="g10"
     transform="matrix(1.3333333,0,0,-1.3333333,0,1066.6267)">
    <g
       id="g1620"
       transform="translate(-129.59298,133.98878)">
      <path
         d="M 550.307,591.16 401.69,643.576 c -1.094,0.372 -2.287,0.372 -3.382,0 L 249.667,591.16 c -2.014,-0.721 -3.381,-2.636 -3.381,-4.774 0,-53.061 14.048,-114.377 38.515,-168.235 19.843,-43.687 55.548,-101.995 112.862,-131.51 0.746,-0.372 1.541,-0.571 2.337,-0.571 0.795,0 1.591,0.199 2.313,0.571 57.337,29.515 93.018,87.823 112.885,131.51 24.467,53.858 38.49,115.174 38.49,168.235 0,2.138 -1.342,4.053 -3.381,4.774 v 0"
         style="fill:#0b0b28;fill-opacity:1;fill-rule:evenodd;stroke:none;stroke-width:0.1"
         id="path16" />
      <path
         d="M 532.827,575.421 400,622.242 267.147,575.421 c 1.839,-50.153 15.938,-103.562 36.477,-148.717 20.663,-45.527 52.241,-92.074 96.376,-117.784 44.109,25.71 75.688,72.257 96.375,117.784 20.514,45.155 34.636,98.564 36.452,148.717 v 0"
         style="fill:#ffffff;fill-opacity:1;fill-rule:evenodd;stroke:none;stroke-width:0.1"
         id="path18" />
      <path
         d="m 392.093,413.949 c 0,13.725 -10.767,24.715 -24.044,25.859 v 11.214 l -5.496,-2.735 v -8.702 c -12.805,-1.617 -22.876,-12.382 -22.876,-25.636 v -24.044 c 0,-1.591 1.368,-2.76 2.736,-2.76 h 9.15 c 1.393,0 2.76,1.169 2.76,2.76 0,1.617 -1.367,2.759 -2.76,2.759 h -6.391 v 21.285 c 0,11.438 9.374,20.588 20.813,20.588 11.462,0 20.613,-9.15 20.613,-20.588 v -21.285 h -5.719 c -1.617,0 -2.76,-1.142 -2.76,-2.759 0,-1.591 1.143,-2.76 2.76,-2.76 h 8.454 c 1.617,0 2.76,1.169 2.76,2.76 v 24.044"
         style="fill:#ffffff;fill-opacity:1;fill-rule:evenodd;stroke:none;stroke-width:0.1"
         id="path20" />
      <path
         d="m 432.597,418.524 c 0,2.512 2.064,4.575 4.799,4.575 2.537,0 4.824,-2.063 4.824,-4.575 0,-2.76 -2.287,-4.799 -4.824,-4.799 -2.735,0 -4.799,2.039 -4.799,4.799 z m 2.759,31.131 v -21.309 c -4.574,-0.895 -8.03,-5.024 -8.03,-9.822 0,-5.744 4.6,-10.294 10.07,-10.294 5.745,0 10.095,4.55 10.095,10.294 0,4.351 -2.761,8.007 -6.887,9.374 0.249,0.224 0.249,0.448 0.249,0.696 v 18.549 l -5.497,2.512"
         style="fill:#ffffff;fill-opacity:1;fill-rule:evenodd;stroke:none;stroke-width:0.1"
         id="path22" />
      <path
         d="m 437.396,413.725 c -2.735,0 -4.799,2.039 -4.799,4.799 0,2.512 2.064,4.575 4.799,4.575 2.537,0 4.824,-2.063 4.824,-4.575 0,-2.76 -2.287,-4.799 -4.824,-4.799 z M 316.33,427.127 c 18.226,-39.361 45.726,-79.268 83.869,-101.473 38.042,22.155 65.493,61.914 83.72,101.175 -9.424,8.28 -23.797,11.363 -43.066,20.314 v -18.549 c 0,-0.248 0,-0.472 -0.249,-0.696 4.126,-1.367 6.887,-5.023 6.887,-9.374 0,-5.744 -4.35,-10.294 -10.095,-10.294 -5.47,0 -10.07,4.55 -10.07,10.294 0,4.798 3.456,8.927 8.03,9.822 0,0 0,0 0,0.248 v 21.061 c -2.983,1.591 -6.19,3.207 -9.398,5.023 v 12.606 0 c 7.783,5.023 10.542,16.013 13.054,25.86 1.144,0.224 2.064,2.063 2.064,4.351 v 0.671 c 0.921,1.144 1.815,2.984 2.511,5.967 0.92,2.96 4.351,12.11 1.143,14.422 -1.367,0.672 -2.51,0.447 -3.207,-1.168 0,0 4.128,22.676 0.92,32.298 -7.087,24.94 -65.692,31.803 -65.692,16.238 -24.94,-7.087 -20.365,-30.658 -16.933,-48.761 0,0 -1.616,2.289 -3.903,0 -2.736,-2.958 0.248,-9.821 1.143,-13.029 0.696,-2.76 1.616,-4.35 2.288,-5.719 0,-0.248 0,-0.471 0,-0.919 0,-2.288 0.92,-4.351 2.287,-4.351 v 0 c 2.984,-10.991 4.825,-21.757 13.054,-27.476 v -10.99 c -2.063,-1.368 -4.352,-2.512 -6.638,-3.656 v -11.214 c 13.277,-1.144 24.044,-12.134 24.044,-25.859 v -24.044 c 0,-1.591 -1.143,-2.76 -2.76,-2.76 h -8.454 c -1.617,0 -2.76,1.169 -2.76,2.76 0,1.617 1.143,2.759 2.76,2.759 h 5.719 v 21.285 c 0,11.438 -9.151,20.588 -20.613,20.588 -11.439,0 -20.813,-9.15 -20.813,-20.588 v -21.285 h 6.391 c 1.393,0 2.76,-1.142 2.76,-2.759 0,-1.591 -1.367,-2.76 -2.76,-2.76 h -9.15 c -1.368,0 -2.736,1.169 -2.736,2.76 v 24.044 c 0,13.254 10.071,24.019 22.876,25.636 v 8.702 c -20.961,-9.945 -36.402,-12.258 -46.223,-21.16 v 0"
         style="fill:#54c4a1;fill-opacity:1;fill-rule:evenodd;stroke:none;stroke-width:0.1"
         id="path24" />
      <g
         aria-label="CLÃNICA"
         transform="scale(1,-1)"
         id="text373"
         style="font-size:108px;font-family:'Tibetan Machine Uni';-inkscape-font-specification:'Tibetan Machine Uni, Normal';text-align:center;text-anchor:middle;fill:#0b0b28;fill-rule:evenodd;stroke-width:3.77575;stroke-miterlimit:0.3;stroke-dasharray:10.0661, 20.1323">
        <path
           d="m 214.90549,-224.53471 h -4.85157 q -1.89843,-6.4336 -3.375,-10.01953 -1.37109,-3.69141 -2.84765,-6.4336 -3.16406,-5.3789 -8.1211,-8.33203 -4.85156,-2.95312 -10.75781,-2.95312 -5.27344,0 -10.01953,2.74218 -4.64062,2.63672 -7.27734,7.38282 -2.74219,5.0625 -4.11328,11.60156 -1.26563,6.43359 -1.26563,15.92578 0,17.92969 5.80078,26.57812 5.90625,8.54297 18.2461,8.54297 6.75,0 12.02343,-2.84765 5.27344,-2.84766 8.64844,-8.75391 1.47656,-2.42578 2.42578,-5.48437 0.94922,-3.16407 1.79297,-7.59375 l 5.27344,0.94921 q -1.89844,14.02735 -10.01953,21.41016 -8.1211,7.38281 -21.51563,7.38281 -8.12109,0 -14.97656,-2.95312 -6.75,-3.0586 -11.70703,-8.4375 -4.95703,-5.37891 -7.80469,-12.86719 -2.74219,-7.48828 -2.74219,-16.45312 0,-8.54297 2.53125,-15.60938 2.53125,-7.17187 7.80469,-13.5 5.58984,-6.64453 12.23438,-9.80859 6.75,-3.26953 14.87109,-3.26953 2.74219,0 5.0625,0.3164 2.32031,0.31641 4.53516,1.16016 2.21484,0.84375 4.53515,2.32031 2.42578,1.37109 5.37891,3.58594 l 4.42969,-6.4336 h 4.21875 z"
           id="path1521" />
        <path
           d="m 262.47189,-255.75346 v 5.16797 h -2.0039 q -3.375,0 -5.37891,0.21093 -1.89844,0.10547 -2.95312,0.73828 -0.94922,0.52735 -1.26563,1.58204 -0.31641,0.94921 -0.31641,2.63671 v 58.85157 q 0,1.79297 0.10547,2.53125 0.21094,0.63281 0.73828,1.16015 0.73829,0.73828 2.63672,1.26563 2.00391,0.42187 4.53516,0.42187 h 4.53516 q 6.96093,0 11.8125,-1.47656 4.85156,-1.58203 7.38281,-4.85156 2.21484,-2.74219 3.90234,-7.91016 1.79297,-5.27344 2.63672,-10.86328 h 4.85156 l -2.32031,30.26953 h -64.96875 v -5.16797 h 2.00391 q 3.375,0 5.27343,-0.10547 2.00391,-0.21093 3.0586,-0.73828 1.05469,-0.52734 1.26562,-1.47656 0.31641,-1.05469 0.31641,-2.84766 v -59.0625 q 0,-1.6875 -0.31641,-2.63671 -0.21093,-1.05469 -1.26562,-1.58204 -1.05469,-0.63281 -3.0586,-0.73828 -1.89843,-0.21093 -5.27343,-0.21093 h -2.00391 v -5.16797 z"
           id="path1523" />
        <path
           d="m 336.93283,-255.75346 v 5.0625 h -2.10937 q -3.375,0 -5.37891,0.21093 -1.89844,0.10547 -2.95313,0.73829 -1.05468,0.52734 -1.37109,1.58203 -0.31641,0.94922 -0.31641,2.63672 v 59.16796 q 0,1.79297 0.31641,2.84766 0.31641,0.94922 1.37109,1.47656 1.05469,0.52735 2.95313,0.73828 2.00391,0.10547 5.37891,0.10547 h 2.10937 v 5.16797 h -36.49219 v -5.16797 h 2.21485 q 3.26953,0 5.27343,-0.10547 2.00391,-0.21093 2.95313,-0.73828 1.05469,-0.52734 1.37109,-1.47656 0.31641,-1.05469 0.31641,-2.84766 v -59.16796 q 0,-1.6875 -0.31641,-2.63672 -0.3164,-1.05469 -1.37109,-1.58203 -0.94922,-0.63282 -2.95313,-0.73829 -2.0039,-0.21093 -5.27343,-0.21093 h -2.21485 v -5.0625 z m -15.29297,-22.78125 q 2.00391,-2.00391 3.0586,-2.63672 1.16015,-0.63281 2.42578,-0.63281 1.58203,0 2.74218,1.16015 1.16016,1.16016 1.16016,2.74219 0,1.16016 -0.84375,2.32031 -0.73828,1.05469 -2.00391,1.89844 l -17.40234,10.75781 h -4.53516 z"
           id="path1525" />
        <path
           d="m 365.93674,-255.75346 44.08593,58.64062 v -34.69922 q 0,-5.69531 -0.52734,-9.28125 -0.52734,-3.58593 -1.89844,-5.58984 -1.37109,-2.10938 -3.90234,-2.84766 -2.42578,-0.84375 -6.32813,-1.05468 v -5.16797 h 31.42969 v 5.16797 q -4.00781,0.21093 -6.53906,1.05468 -2.42578,0.73828 -3.79688,2.84766 -1.37109,2.00391 -1.89843,5.58984 -0.52735,3.58594 -0.52735,9.28125 v 57.375 h -4.64062 l -49.35938,-66.44531 v 40.92188 q 0,5.69531 0.52735,9.28125 0.52734,3.58593 1.89843,5.69531 1.47657,2.0039 3.90235,2.84765 2.53125,0.73829 6.53906,0.94922 v 5.16797 h -31.53516 v -5.16797 q 4.00782,-0.21093 6.4336,-0.94922 2.53125,-0.84375 3.90234,-2.84765 1.47656,-2.10938 2.00391,-5.69531 0.52734,-3.58594 0.52734,-9.28125 v -47.03907 q -1.47656,-2.10937 -3.6914,-2.84765 -2.21485,-0.73828 -6.53907,-0.73828 h -2.84765 v -5.16797 z"
           id="path1527" />
        <path
           d="m 471.82736,-255.75346 v 5.0625 h -2.10937 q -3.375,0 -5.37891,0.21093 -1.89844,0.10547 -2.95312,0.73829 -1.05469,0.52734 -1.3711,1.58203 -0.3164,0.94922 -0.3164,2.63672 v 59.16796 q 0,1.79297 0.3164,2.84766 0.31641,0.94922 1.3711,1.47656 1.05468,0.52735 2.95312,0.73828 2.00391,0.10547 5.37891,0.10547 h 2.10937 v 5.16797 h -36.49219 v -5.16797 h 2.21485 q 3.26953,0 5.27344,-0.10547 2.0039,-0.21093 2.95312,-0.73828 1.05469,-0.52734 1.37109,-1.47656 0.31641,-1.05469 0.31641,-2.84766 v -59.16796 q 0,-1.6875 -0.31641,-2.63672 -0.3164,-1.05469 -1.37109,-1.58203 -0.94922,-0.63282 -2.95312,-0.73829 -2.00391,-0.21093 -5.27344,-0.21093 h -2.21485 v -5.0625 z"
           id="path1529" />
        <path
           d="m 548.18674,-224.53471 h -4.85157 q -1.89843,-6.4336 -3.375,-10.01953 -1.37109,-3.69141 -2.84765,-6.4336 -3.16406,-5.3789 -8.1211,-8.33203 -4.85156,-2.95312 -10.75781,-2.95312 -5.27344,0 -10.01953,2.74218 -4.64062,2.63672 -7.27734,7.38282 -2.74219,5.0625 -4.11328,11.60156 -1.26563,6.43359 -1.26563,15.92578 0,17.92969 5.80078,26.57812 5.90625,8.54297 18.2461,8.54297 6.75,0 12.02343,-2.84765 5.27344,-2.84766 8.64844,-8.75391 1.47656,-2.42578 2.42578,-5.48437 0.94922,-3.16407 1.79297,-7.59375 l 5.27344,0.94921 q -1.89844,14.02735 -10.01953,21.41016 -8.1211,7.38281 -21.51563,7.38281 -8.12109,0 -14.97656,-2.95312 -6.75,-3.0586 -11.70703,-8.4375 -4.95703,-5.37891 -7.80469,-12.86719 -2.74219,-7.48828 -2.74219,-16.45312 0,-8.54297 2.53125,-15.60938 2.53125,-7.17187 7.80469,-13.5 5.58984,-6.64453 12.23438,-9.80859 6.75,-3.26953 14.87109,-3.26953 2.74219,0 5.0625,0.3164 2.32031,0.31641 4.53516,1.16016 2.21484,0.84375 4.53515,2.32031 2.42578,1.37109 5.37891,3.58594 l 4.42969,-6.4336 h 4.21875 z"
           id="path1531" />
        <path
           d="m 625.6008,-188.14799 q 0.94922,2.32031 1.6875,3.79687 0.84375,1.37109 1.79297,2.10938 1.05469,0.73828 2.42578,0.94921 1.37109,0.21094 3.375,0.21094 h 1.58203 v 5.0625 h -34.27734 v -5.0625 h 4.74609 q 3.05859,0 4.85156,-0.73828 1.89844,-0.73828 1.89844,-2.21484 0,-0.42188 -0.21094,-1.05469 -0.10547,-0.63281 -0.63281,-1.89844 l -5.90625,-15.08203 h -29.21484 l -3.79688,9.91406 q -0.94922,2.74219 -0.94922,4.7461 0,6.32812 8.96485,6.32812 h 2.21484 v 5.0625 h -29.21484 v -5.0625 h 0.42187 q 2.21485,0 4.32422,-0.94922 2.10938,-1.05468 3.375,-2.53125 0.63281,-0.63281 1.05469,-1.26562 0.42187,-0.63281 0.84375,-1.47656 0.52734,-0.84375 1.05469,-2.10938 0.63281,-1.37109 1.47656,-3.48047 l 25.41797,-64.4414 h 4.64062 z m -45.77344,-19.61719 h 24.78516 l -12.44531,-31.32422 z"
           id="path1533" />
      </g>
      <g
         aria-label="El Buen Vivir"
         transform="scale(1,-1)"
         id="text1428"
         style="font-size:108px;font-family:Mallanna;-inkscape-font-specification:'Mallanna, Normal';text-align:center;text-anchor:middle;fill:#0b0b28;fill-rule:evenodd;stroke-width:3.77575;stroke-miterlimit:0.3;stroke-dasharray:10.0661, 20.1323">
        <path
           d="m 164.98326,-88.107506 v -59.089654 h 32.27586 v 5.21379 h -26.44138 v 21.47586 h 25.57241 v 5.2138 h -25.57241 v 21.972411 h 26.44138 v 5.213793 z"
           id="path1550" />
        <path
           d="m 207.43823,-88.107506 v -59.089654 h 5.46207 v 59.089654 z"
           id="path1552" />
        <path
           d="m 249.1484,-88.107506 v -59.089654 h 14.77242 q 9.31034,0 14.27586,4.34483 5.08965,4.34482 5.08965,11.42069 0,4.5931 -2.35862,7.82069 -1.36552,1.61379 -4.22069,4.09655 4.59311,1.86207 7.2,5.71034 2.73104,3.84828 2.73104,8.8138 0,4.09655 -1.73793,7.820685 -1.73794,3.724138 -4.96552,5.834483 -3.22759,1.986207 -6.57931,2.606897 -3.22759,0.620689 -7.94483,0.620689 z m 5.83448,-28.303444 v 23.089651 h 8.31725 q 4.34482,0 6.57931,-0.248276 2.23448,-0.248276 4.84138,-1.365517 2.60689,-1.117241 4.34482,-3.848276 1.86207,-2.855172 1.86207,-6.206892 0,-3.35173 -1.9862,-6.08276 -1.98621,-2.73104 -5.2138,-3.97242 -2.11034,-0.86896 -4.22069,-1.11724 -2.11034,-0.24827 -7.2,-0.24827 z m 0,-25.57242 v 20.35862 h 7.57242 q 3.47586,0 5.33793,-0.12414 1.98621,-0.24827 4.46896,-1.48965 2.48276,-1.36552 3.84828,-3.6 1.36552,-2.23448 1.36552,-4.96552 0,-1.86207 -0.62069,-3.35172 -0.62069,-1.61379 -1.86207,-3.10345 -3.35172,-3.72414 -12.16552,-3.72414 z"
           id="path1554" />
        <path
           d="m 332.44495,-132.79716 v 43.696551 h -5.21379 v -6.951724 q -1.73793,3.227586 -4.71725,5.337931 -3.97241,2.606896 -9.43448,2.606896 -5.71034,0 -10.05517,-2.234483 -2.85517,-1.489655 -4.96552,-4.096551 -2.11034,-2.731035 -2.97931,-6.45517 -0.86896,-3.84828 -0.86896,-7.82069 v -24.08276 h 5.46207 v 24.08276 q 0,3.97241 0.74482,6.82758 0.74483,2.731038 2.35862,4.841383 2.23449,2.110345 5.08966,3.227586 2.35862,0.868966 5.21379,0.868966 2.85517,0 4.96552,-0.744828 2.23448,-0.744827 4.34483,-2.855172 2.11034,-2.110345 3.10345,-4.593105 1.48965,-3.22758 1.48965,-8.56552 v -23.08965 z"
           id="path1556" />
        <path
           d="m 386.44475,-108.96268 h -39.84828 q 0,6.33104 5.21379,11.172416 5.33793,4.841379 11.79311,4.841379 5.71034,0 10.17931,-3.103448 3.97241,-2.731035 5.5862,-7.324137 h 5.71035 q -2.23448,6.703447 -8.06897,11.048275 -5.83448,4.220689 -13.40689,4.220689 -9.31035,0 -16.0138,-6.57931 -6.70345,-6.579314 -6.70345,-16.262074 0,-9.31034 6.57932,-16.13793 6.70344,-6.82758 16.13793,-6.82758 6.70344,0 12.16551,3.47586 4.59311,3.10345 7.32414,7.69655 1.73793,2.73104 2.6069,6.08276 0.86896,3.22759 0.86896,6.2069 z m -39.97242,-4.96552 h 34.38621 q -1.24138,-7.32413 -6.57931,-11.42069 -4.71724,-3.6 -10.67586,-3.6 -5.71035,0 -10.55173,3.6 -5.33793,4.22069 -6.57931,11.42069 z"
           id="path1558" />
        <path
           d="m 394.88607,-88.107506 v -43.696554 h 5.46207 v 5.83449 q 1.98621,-2.85518 4.71724,-4.46897 3.97242,-2.48276 8.93793,-2.48276 4.46897,0 7.57242,1.24138 3.22758,1.24138 6.20689,4.22069 2.73104,2.35862 4.09656,6.33103 1.48965,3.97242 1.48965,8.93794 v 24.082754 h -5.58621 v -24.082754 q 0,-4.22069 -1.11724,-7.07587 -1.11724,-2.85517 -3.10345,-4.84138 -1.86206,-1.9862 -4.5931,-2.85517 -2.73103,-0.9931 -4.96552,-0.9931 -2.35862,0 -4.84138,0.86896 -2.48275,0.86897 -4.71724,2.85518 -1.73793,1.86207 -2.97931,4.84138 -1.11724,2.97931 -1.11724,6.82758 v 24.455174 z"
           id="path1560" />
        <path
           d="m 488.48583,-88.107506 -24.45517,-59.089654 h 6.45517 l 20.97931,52.013792 20.97931,-52.013792 h 6.20689 l -24.57931,59.089654 z"
           id="path1562" />
        <path
           d="M 524.85816,-88.231644 V -131.9282 h 5.46207 v 43.696556 z m 0,-49.034486 v -10.05517 h 5.46207 v 10.05517 z"
           id="path1564" />
        <path
           d="m 554.77538,-88.107506 -18.49656,-43.696554 h 5.83449 l 15.64138,36.993106 15.64138,-36.993106 h 5.83448 L 560.734,-88.107506 Z"
           id="path1566" />
        <path
           d="M 585.18897,-88.231644 V -131.9282 h 5.46207 v 43.696556 z m 0,-49.034486 v -10.05517 h 5.46207 v 10.05517 z"
           id="path1568" />
        <path
           d="m 601.20271,-88.107506 v -43.696554 h 5.46207 v 6.57931 q 1.9862,-4.34482 5.5862,-6.33103 2.97931,-1.36552 6.95173,-1.36552 v 5.83448 q -2.85517,0 -5.33793,1.24138 -2.48276,1.11724 -3.97242,3.10345 -3.22758,3.97242 -3.22758,9.06207 v 25.572414 z"
           id="path1570" />
      </g>
    </g>
  </g>
</svg>
